<svg width="740" height="267" viewBox="0 0 740 267" fill="none" xmlns="http://www.w3.org/2000/svg">
<path d="M10.8 215V69.2H59.76C68.52 69.2 75.72 70.88 81.36 74.24C87 77.48 91.2 82.28 93.96 88.64C96.72 94.88 98.1 102.5 98.1 111.5C98.1 122.78 96.24 131.42 92.52 137.42C88.8 143.3 83.76 147.38 77.4 149.66C71.04 151.94 63.9 153.08 55.98 153.08H43.02V215H10.8ZM43.02 130.58H53.82C57.78 130.58 60.78 129.86 62.82 128.42C64.86 126.98 66.18 124.82 66.78 121.94C67.5 119.06 67.86 115.4 67.86 110.96C67.86 107.24 67.56 104 66.96 101.24C66.48 98.36 65.22 96.08 63.18 94.4C61.14 92.72 57.96 91.88 53.64 91.88H43.02V130.58ZM113.812 215V69.2H146.032V215H113.812ZM162.193 215V195.56L197.833 90.98H163.813V69.2H229.513V87.38L193.333 193.22H229.873V215H162.193ZM240.064 215V195.56L275.704 90.98H241.684V69.2H307.384V87.38L271.204 193.22H307.744V215H240.064ZM461.679 215V69.2H493.899V193.22H527.379V215H461.679ZM541.664 215V69.2H573.884V215H541.664ZM595.624 215V69.2H618.304L648.184 139.4V69.2H674.824V215H653.044L623.164 139.4V215H595.624ZM696.703 215V69.2H728.923V215H696.703Z" fill="black"/>
<g clip-path="url(#clip0_1085_2)">
<mask id="mask0_1085_2" style="mask-type:luminance" maskUnits="userSpaceOnUse" x="306" y="70" width="144" height="144">
<path d="M450 70H306V214H450V70Z" fill="white"/>
</mask>
<g mask="url(#mask0_1085_2)">
<path d="M378 214C417.765 214 450 181.765 450 142C450 102.235 417.765 70 378 70C338.235 70 306 102.235 306 142C306 181.765 338.235 214 378 214Z" fill="#F3A021"/>
<mask id="mask1_1085_2" style="mask-type:alpha" maskUnits="userSpaceOnUse" x="305" y="69" width="146" height="146">
<path d="M378 70.8727C417.274 70.8727 449.122 102.713 449.122 142C449.122 181.288 417.274 213.127 378 213.127C338.725 213.127 306.878 181.288 306.878 142C306.878 102.713 338.725 70.8727 378 70.8727Z" fill="#D9D9D9" stroke="#731F4F" stroke-width="2"/>
</mask>
<g mask="url(#mask1_1085_2)">
<path d="M380.634 70C419.904 70 451.756 101.835 451.756 141.127C451.756 180.42 419.904 212.255 380.634 212.255C341.364 212.255 309.512 180.42 309.512 141.127C309.512 101.835 341.364 70 380.634 70Z" stroke="#D27227" stroke-width="4"/>
</g>
<mask id="mask2_1085_2" style="mask-type:alpha" maskUnits="userSpaceOnUse" x="395" y="56" width="94" height="133">
<path d="M488.634 56.0364H395.561V188.691H488.634V56.0364Z" fill="#D9D9D9"/>
</mask>
<g mask="url(#mask2_1085_2)">
<mask id="mask3_1085_2" style="mask-type:alpha" maskUnits="userSpaceOnUse" x="302" y="69" width="149" height="146">
<path d="M376.244 70.8727C416.509 70.8727 449.122 102.732 449.122 142C449.122 181.267 416.509 213.127 376.244 213.127C335.979 213.127 303.366 181.267 303.366 142C303.366 102.732 335.979 70.8727 376.244 70.8727Z" fill="#D9D9D9" stroke="#731F4F" stroke-width="2"/>
</mask>
<g mask="url(#mask3_1085_2)">
<path d="M381.512 70.8727C419.569 70.8727 450.878 106.94 450.878 152.036C450.878 197.133 419.569 233.2 381.512 233.2C343.455 233.2 312.146 197.133 312.146 152.036C312.146 106.94 343.455 70.8727 381.512 70.8727Z" stroke="#FCCC79" stroke-width="4"/>
</g>
</g>
<path d="M378 70.8727C417.274 70.8727 449.122 102.713 449.122 142C449.122 181.288 417.274 213.127 378 213.127C338.725 213.127 306.878 181.288 306.878 142C306.878 102.713 338.725 70.8727 378 70.8727Z" stroke="#731F4F" stroke-width="2"/>
<path d="M378 202.655C412.43 202.655 440.341 175.108 440.341 141.127C440.341 107.147 412.43 79.6 378 79.6C343.57 79.6 315.659 107.147 315.659 141.127C315.659 175.108 343.57 202.655 378 202.655Z" fill="#D17027"/>
<path d="M378 198.727C409.278 198.727 434.634 173.525 434.634 142.436C434.634 111.348 409.278 86.1454 378 86.1454C346.722 86.1454 321.366 111.348 321.366 142.436C321.366 173.525 346.722 198.727 378 198.727Z" fill="#FFC91F" stroke="#E39F2A" stroke-width="3"/>
<path d="M378 201.345C410.733 201.345 437.268 174.971 437.268 142.436C437.268 109.902 410.733 83.5273 378 83.5273C345.267 83.5273 318.732 109.902 318.732 142.436C318.732 174.971 345.267 201.345 378 201.345Z" stroke="#731F4F" stroke-width="3"/>
<path d="M347.707 106.655C353.801 106.655 358.683 111.374 358.683 117.127C358.683 122.88 353.801 127.6 347.707 127.6C341.614 127.6 336.732 122.88 336.732 117.127C336.732 111.374 341.614 106.655 347.707 106.655Z" fill="#F12024" stroke="#731F4F" stroke-width="2"/>
<path d="M349.902 113.636C350.387 113.636 350.781 113.246 350.781 112.764C350.781 112.282 350.387 111.891 349.902 111.891C349.418 111.891 349.024 112.282 349.024 112.764C349.024 113.246 349.418 113.636 349.902 113.636Z" fill="#D2212A"/>
<path d="M345.512 121.491C345.997 121.491 346.39 121.1 346.39 120.618C346.39 120.136 345.997 119.745 345.512 119.745C345.027 119.745 344.634 120.136 344.634 120.618C344.634 121.1 345.027 121.491 345.512 121.491Z" fill="#D2212A"/>
<path d="M342.439 114.509C342.681 114.509 342.878 114.314 342.878 114.073C342.878 113.832 342.681 113.636 342.439 113.636C342.197 113.636 342 113.832 342 114.073C342 114.314 342.197 114.509 342.439 114.509Z" fill="#D2212A"/>
<path d="M350.341 119.745C351.069 119.745 351.659 119.159 351.659 118.436C351.659 117.713 351.069 117.127 350.341 117.127C349.614 117.127 349.024 117.713 349.024 118.436C349.024 119.159 349.614 119.745 350.341 119.745Z" fill="#D2212A"/>
<path d="M341.561 140.691C347.654 140.691 352.537 145.41 352.537 151.164C352.537 156.917 347.654 161.636 341.561 161.636C335.468 161.636 330.585 156.917 330.585 151.164C330.585 145.41 335.468 140.691 341.561 140.691Z" fill="#F12024" stroke="#731F4F" stroke-width="2"/>
<path d="M343.756 147.673C344.241 147.673 344.634 147.282 344.634 146.8C344.634 146.318 344.241 145.927 343.756 145.927C343.271 145.927 342.878 146.318 342.878 146.8C342.878 147.282 343.271 147.673 343.756 147.673Z" fill="#D2212A"/>
<path d="M339.366 155.527C339.851 155.527 340.244 155.137 340.244 154.655C340.244 154.173 339.851 153.782 339.366 153.782C338.881 153.782 338.488 154.173 338.488 154.655C338.488 155.137 338.881 155.527 339.366 155.527Z" fill="#D2212A"/>
<path d="M336.293 148.545C336.535 148.545 336.732 148.35 336.732 148.109C336.732 147.868 336.535 147.673 336.293 147.673C336.05 147.673 335.854 147.868 335.854 148.109C335.854 148.35 336.05 148.545 336.293 148.545Z" fill="#D2212A"/>
<path d="M344.195 153.782C344.923 153.782 345.512 153.196 345.512 152.473C345.512 151.75 344.923 151.164 344.195 151.164C343.468 151.164 342.878 151.75 342.878 152.473C342.878 153.196 343.468 153.782 344.195 153.782Z" fill="#D2212A"/>
<path d="M379.317 124.982C385.41 124.982 390.293 129.701 390.293 135.455C390.293 141.208 385.41 145.927 379.317 145.927C373.224 145.927 368.341 141.208 368.341 135.455C368.341 129.701 373.224 124.982 379.317 124.982Z" fill="#F12024" stroke="#731F4F" stroke-width="2"/>
<path d="M381.512 131.964C381.997 131.964 382.39 131.573 382.39 131.091C382.39 130.609 381.997 130.218 381.512 130.218C381.027 130.218 380.634 130.609 380.634 131.091C380.634 131.573 381.027 131.964 381.512 131.964Z" fill="#D2212A"/>
<path d="M377.122 139.818C377.607 139.818 378 139.427 378 138.945C378 138.463 377.607 138.073 377.122 138.073C376.637 138.073 376.244 138.463 376.244 138.945C376.244 139.427 376.637 139.818 377.122 139.818Z" fill="#D2212A"/>
<path d="M374.049 132.836C374.291 132.836 374.488 132.641 374.488 132.4C374.488 132.159 374.291 131.964 374.049 131.964C373.806 131.964 373.61 132.159 373.61 132.4C373.61 132.641 373.806 132.836 374.049 132.836Z" fill="#D2212A"/>
<path d="M381.951 138.073C382.679 138.073 383.268 137.487 383.268 136.764C383.268 136.041 382.679 135.455 381.951 135.455C381.224 135.455 380.634 136.041 380.634 136.764C380.634 137.487 381.224 138.073 381.951 138.073Z" fill="#D2212A"/>
<path d="M410.927 109.273C417.02 109.273 421.902 113.992 421.902 119.745C421.902 125.499 417.02 130.218 410.927 130.218C404.834 130.218 399.951 125.499 399.951 119.745C399.951 113.992 404.834 109.273 410.927 109.273Z" fill="#F12024" stroke="#731F4F" stroke-width="2"/>
<path d="M413.122 116.255C413.607 116.255 414 115.864 414 115.382C414 114.9 413.607 114.509 413.122 114.509C412.637 114.509 412.244 114.9 412.244 115.382C412.244 115.864 412.637 116.255 413.122 116.255Z" fill="#D2212A"/>
<path d="M408.732 124.109C409.217 124.109 409.61 123.718 409.61 123.236C409.61 122.754 409.217 122.364 408.732 122.364C408.247 122.364 407.854 122.754 407.854 123.236C407.854 123.718 408.247 124.109 408.732 124.109Z" fill="#D2212A"/>
<path d="M405.659 117.127C405.901 117.127 406.098 116.932 406.098 116.691C406.098 116.45 405.901 116.255 405.659 116.255C405.416 116.255 405.219 116.45 405.219 116.691C405.219 116.932 405.416 117.127 405.659 117.127Z" fill="#D2212A"/>
<path d="M413.561 122.364C414.288 122.364 414.878 121.778 414.878 121.055C414.878 120.332 414.288 119.745 413.561 119.745C412.834 119.745 412.244 120.332 412.244 121.055C412.244 121.778 412.834 122.364 413.561 122.364Z" fill="#D2212A"/>
<path d="M411.805 147.673C417.898 147.673 422.781 152.392 422.781 158.145C422.781 163.898 417.898 168.618 411.805 168.618C405.712 168.618 400.829 163.898 400.829 158.145C400.829 152.392 405.712 147.673 411.805 147.673Z" fill="#F12024" stroke="#731F4F" stroke-width="2"/>
<path d="M414 154.655C414.485 154.655 414.878 154.264 414.878 153.782C414.878 153.3 414.485 152.909 414 152.909C413.515 152.909 413.122 153.3 413.122 153.782C413.122 154.264 413.515 154.655 414 154.655Z" fill="#D2212A"/>
<path d="M409.61 162.509C410.095 162.509 410.488 162.118 410.488 161.636C410.488 161.154 410.095 160.764 409.61 160.764C409.125 160.764 408.732 161.154 408.732 161.636C408.732 162.118 409.125 162.509 409.61 162.509Z" fill="#D2212A"/>
<path d="M406.537 155.527C406.779 155.527 406.976 155.332 406.976 155.091C406.976 154.85 406.779 154.655 406.537 154.655C406.294 154.655 406.098 154.85 406.098 155.091C406.098 155.332 406.294 155.527 406.537 155.527Z" fill="#D2212A"/>
<path d="M414.439 160.764C415.166 160.764 415.756 160.178 415.756 159.455C415.756 158.732 415.166 158.145 414.439 158.145C413.712 158.145 413.122 158.732 413.122 159.455C413.122 160.178 413.712 160.764 414.439 160.764Z" fill="#D2212A"/>
<path d="M374.927 161.636C381.02 161.636 385.902 166.356 385.902 172.109C385.902 177.862 381.02 182.582 374.927 182.582C368.834 182.582 363.951 177.862 363.951 172.109C363.951 166.356 368.834 161.636 374.927 161.636Z" fill="#F12024" stroke="#731F4F" stroke-width="2"/>
<path d="M377.122 168.618C377.607 168.618 378 168.227 378 167.745C378 167.263 377.607 166.873 377.122 166.873C376.637 166.873 376.244 167.263 376.244 167.745C376.244 168.227 376.637 168.618 377.122 168.618Z" fill="#D2212A"/>
<path d="M372.732 176.473C373.217 176.473 373.61 176.082 373.61 175.6C373.61 175.118 373.217 174.727 372.732 174.727C372.247 174.727 371.854 175.118 371.854 175.6C371.854 176.082 372.247 176.473 372.732 176.473Z" fill="#D2212A"/>
<path d="M369.659 169.491C369.901 169.491 370.098 169.296 370.098 169.055C370.098 168.814 369.901 168.618 369.659 168.618C369.416 168.618 369.22 168.814 369.22 169.055C369.22 169.296 369.416 169.491 369.659 169.491Z" fill="#D2212A"/>
<path d="M377.561 174.727C378.288 174.727 378.878 174.141 378.878 173.418C378.878 172.695 378.288 172.109 377.561 172.109C376.834 172.109 376.244 172.695 376.244 173.418C376.244 174.141 376.834 174.727 377.561 174.727Z" fill="#D2212A"/>
<path d="M382.829 89.2C388.922 89.2 393.805 93.9195 393.805 99.6727C393.805 105.426 388.922 110.145 382.829 110.145C376.736 110.145 371.854 105.426 371.854 99.6727C371.854 93.9195 376.736 89.2 382.829 89.2Z" fill="#F12024" stroke="#731F4F" stroke-width="2"/>
<path d="M385.024 96.1818C385.509 96.1818 385.902 95.7911 385.902 95.3091C385.902 94.8271 385.509 94.4364 385.024 94.4364C384.539 94.4364 384.146 94.8271 384.146 95.3091C384.146 95.7911 384.539 96.1818 385.024 96.1818Z" fill="#D2212A"/>
<path d="M380.634 104.036C381.119 104.036 381.512 103.646 381.512 103.164C381.512 102.682 381.119 102.291 380.634 102.291C380.149 102.291 379.756 102.682 379.756 103.164C379.756 103.646 380.149 104.036 380.634 104.036Z" fill="#D2212A"/>
<path d="M377.561 97.0546C377.803 97.0546 378 96.8592 378 96.6182C378 96.3772 377.803 96.1818 377.561 96.1818C377.319 96.1818 377.122 96.3772 377.122 96.6182C377.122 96.8592 377.319 97.0546 377.561 97.0546Z" fill="#D2212A"/>
<path d="M385.463 102.291C386.191 102.291 386.781 101.705 386.781 100.982C386.781 100.259 386.191 99.6727 385.463 99.6727C384.736 99.6727 384.146 100.259 384.146 100.982C384.146 101.705 384.736 102.291 385.463 102.291Z" fill="#D2212A"/>
<path d="M360.439 132.836C361.894 132.836 363.073 131.664 363.073 130.218C363.073 128.772 361.894 127.6 360.439 127.6C358.984 127.6 357.805 128.772 357.805 130.218C357.805 131.664 358.984 132.836 360.439 132.836Z" fill="#DC9328"/>
<path d="M362.634 105.782C363.846 105.782 364.829 104.805 364.829 103.6C364.829 102.395 363.846 101.418 362.634 101.418C361.422 101.418 360.439 102.395 360.439 103.6C360.439 104.805 361.422 105.782 362.634 105.782Z" fill="#DC9328"/>
<path d="M335.854 134.582C337.308 134.582 338.488 133.41 338.488 131.964C338.488 130.518 337.308 129.345 335.854 129.345C334.399 129.345 333.219 130.518 333.219 131.964C333.219 133.41 334.399 134.582 335.854 134.582Z" fill="#DC9328"/>
<path d="M363.073 152.909C364.043 152.909 364.829 152.128 364.829 151.164C364.829 150.2 364.043 149.418 363.073 149.418C362.103 149.418 361.317 150.2 361.317 151.164C361.317 152.128 362.103 152.909 363.073 152.909Z" fill="#DC9328"/>
<path d="M353.415 178.218C354.869 178.218 356.049 177.046 356.049 175.6C356.049 174.154 354.869 172.982 353.415 172.982C351.96 172.982 350.781 174.154 350.781 175.6C350.781 177.046 351.96 178.218 353.415 178.218Z" fill="#DC9328"/>
<path d="M402.146 183.455C403.844 183.455 405.22 182.087 405.22 180.4C405.22 178.713 403.844 177.345 402.146 177.345C400.449 177.345 399.073 178.713 399.073 180.4C399.073 182.087 400.449 183.455 402.146 183.455Z" fill="#DC9328"/>
<path d="M386.781 188.691C387.75 188.691 388.537 187.909 388.537 186.945C388.537 185.981 387.75 185.2 386.781 185.2C385.811 185.2 385.024 185.981 385.024 186.945C385.024 187.909 385.811 188.691 386.781 188.691Z" fill="#DC9328"/>
<path d="M392.049 155.527C393.019 155.527 393.805 154.746 393.805 153.782C393.805 152.818 393.019 152.036 392.049 152.036C391.079 152.036 390.293 152.818 390.293 153.782C390.293 154.746 391.079 155.527 392.049 155.527Z" fill="#DC9328"/>
<path d="M398.195 137.2C399.165 137.2 399.951 136.419 399.951 135.455C399.951 134.491 399.165 133.709 398.195 133.709C397.225 133.709 396.439 134.491 396.439 135.455C396.439 136.419 397.225 137.2 398.195 137.2Z" fill="#DC9328"/>
<path d="M423.659 136.327C424.628 136.327 425.415 135.546 425.415 134.582C425.415 133.618 424.628 132.836 423.659 132.836C422.689 132.836 421.902 133.618 421.902 134.582C421.902 135.546 422.689 136.327 423.659 136.327Z" fill="#DC9328"/>
<path d="M397.317 109.273C398.287 109.273 399.073 108.491 399.073 107.527C399.073 106.563 398.287 105.782 397.317 105.782C396.347 105.782 395.561 106.563 395.561 107.527C395.561 108.491 396.347 109.273 397.317 109.273Z" fill="#DC9328"/>
<path d="M387.659 117.127C388.143 117.127 388.537 116.737 388.537 116.255C388.537 115.773 388.143 115.382 387.659 115.382C387.174 115.382 386.781 115.773 386.781 116.255C386.781 116.737 387.174 117.127 387.659 117.127Z" fill="#DC9328"/>
<path d="M369.22 114.509C369.704 114.509 370.098 114.118 370.098 113.636C370.098 113.154 369.704 112.764 369.22 112.764C368.735 112.764 368.341 113.154 368.341 113.636C368.341 114.118 368.735 114.509 369.22 114.509Z" fill="#DC9328"/>
<path d="M357.805 172.109C357.32 172.109 356.927 171.718 356.927 171.236C356.927 170.754 357.32 170.364 357.805 170.364C358.29 170.364 358.683 170.754 358.683 171.236C358.683 171.718 358.29 172.109 357.805 172.109Z" fill="#DC9328"/>
<path d="M379.756 207.891C385.09 207.891 389.415 206.914 389.415 205.709C389.415 204.504 385.09 203.527 379.756 203.527C374.422 203.527 370.098 204.504 370.098 205.709C370.098 206.914 374.422 207.891 379.756 207.891Z" fill="#F5B63B"/>
<path d="M378 78.7273C383.334 78.7273 387.659 77.7505 387.659 76.5455C387.659 75.3405 383.334 74.3636 378 74.3636C372.666 74.3636 368.341 75.3405 368.341 76.5455C368.341 77.7505 372.666 78.7273 378 78.7273Z" fill="#F5B63B"/>
</g>
</g>
<defs>
<clipPath id="clip0_1085_2">
<rect width="144" height="144" fill="white" transform="translate(306 70)"/>
</clipPath>
</defs>
</svg>
