<svg width="164" height="165" viewBox="0 0 164 165" fill="none" xmlns="http://www.w3.org/2000/svg">
<g clip-path="url(#clip0_1107_91)">
<ellipse cx="82" cy="82.5" rx="82" ry="82.5" fill="#F3A021"/>
<mask id="mask0_1107_91" style="mask-type:alpha" maskUnits="userSpaceOnUse" x="0" y="0" width="164" height="165">
<path d="M82 1C126.729 1 163 37.4831 163 82.5C163 127.517 126.729 164 82 164C37.2707 164 1 127.517 1 82.5C1 37.4831 37.2707 1 82 1Z" fill="#D9D9D9" stroke="#731F4F" stroke-width="2"/>
</mask>
<g mask="url(#mask0_1107_91)">
<path d="M85 0C129.724 0 166 36.4775 166 81.5C166 126.523 129.724 163 85 163C40.2762 163 4 126.523 4 81.5C4 36.4775 40.2762 0 85 0Z" stroke="#D27227" stroke-width="4"/>
</g>
<mask id="mask1_1107_91" style="mask-type:alpha" maskUnits="userSpaceOnUse" x="102" y="-16" width="106" height="152">
<rect x="102" y="-16" width="106" height="152" fill="#D9D9D9"/>
</mask>
<g mask="url(#mask1_1107_91)">
<mask id="mask2_1107_91" style="mask-type:alpha" maskUnits="userSpaceOnUse" x="-4" y="0" width="168" height="165">
<path d="M80 1C125.857 1 163 37.5057 163 82.5C163 127.494 125.857 164 80 164C34.1433 164 -3 127.494 -3 82.5C-3 37.5057 34.1433 1 80 1Z" fill="#D9D9D9" stroke="#731F4F" stroke-width="2"/>
</mask>
<g mask="url(#mask2_1107_91)">
<path d="M86 1C129.343 1 165 42.3266 165 94C165 145.673 129.343 187 86 187C42.6567 187 7 145.673 7 94C7 42.3266 42.6567 1 86 1Z" stroke="#FCCC79" stroke-width="4"/>
</g>
</g>
<path d="M82 1C126.729 1 163 37.4831 163 82.5C163 127.517 126.729 164 82 164C37.2707 164 1 127.517 1 82.5C1 37.4831 37.2707 1 82 1Z" stroke="#731F4F" stroke-width="2"/>
<ellipse cx="82" cy="81.5" rx="71" ry="70.5" fill="#D17027"/>
<circle cx="82" cy="83" r="64.5" fill="#FFC91F" stroke="#E39F2A" stroke-width="3"/>
<circle cx="82" cy="83" r="67.5" stroke="#731F4F" stroke-width="3"/>
<circle cx="60.6169" cy="70.9131" r="3" transform="rotate(-4.93639 60.6169 70.9131)" fill="#DC9328"/>
<circle cx="60.4831" cy="40.3111" r="2.5" transform="rotate(-4.93639 60.4831 40.3111)" fill="#DC9328"/>
<circle cx="32.8929" cy="75.3151" r="3" transform="rotate(-4.93639 32.8929 75.3151)" fill="#DC9328"/>
<circle cx="65.671" cy="94.566" r="2" transform="rotate(-4.93639 65.671 94.566)" fill="#DC9328"/>
<circle cx="57.1212" cy="123.409" r="3" transform="rotate(-4.93639 57.1212 123.409)" fill="#DC9328"/>
<circle cx="112.889" cy="124.112" r="3.5" transform="rotate(-4.93639 112.889 124.112)" fill="#DC9328"/>
<circle cx="96.0989" cy="133.091" r="2" transform="rotate(-4.93639 96.0989 133.091)" fill="#DC9328"/>
<circle cx="98.8067" cy="94.7152" r="2" transform="rotate(-4.93639 98.8067 94.7152)" fill="#DC9328"/>
<circle cx="103.974" cy="73.1907" r="2" transform="rotate(-4.93639 103.974 73.1907)" fill="#DC9328"/>
<circle cx="132.78" cy="69.699" r="2" transform="rotate(-4.93639 132.78 69.699)" fill="#DC9328"/>
<circle cx="100.224" cy="41.3955" r="2" transform="rotate(-4.93639 100.224 41.3955)" fill="#DC9328"/>
<circle cx="90.1251" cy="52.3049" r="1" transform="rotate(-4.93639 90.1251 52.3049)" fill="#DC9328"/>
<circle cx="68.9449" cy="51.1231" r="1" transform="rotate(-4.93639 68.9449 51.1231)" fill="#DC9328"/>
<circle cx="1" cy="1" r="1" transform="matrix(-0.996291 0.0860498 0.0860498 0.996291 62.5826 116.915)" fill="#DC9328"/>
<path d="M45.5 49C52.4395 49 58 54.4078 58 61C58 67.5922 52.4395 73 45.5 73C38.5605 73 33 67.5922 33 61C33 54.4078 38.5605 49 45.5 49Z" fill="#F12024" stroke="#731F4F" stroke-width="2"/>
<circle cx="49" cy="56" r="1" fill="#D2212A"/>
<circle cx="44" cy="65" r="1" fill="#D2212A"/>
<circle cx="40.5" cy="57.5" r="0.5" fill="#D2212A"/>
<circle cx="49.5" cy="62.5" r="1.5" fill="#D2212A"/>
<path d="M45.5 95C52.4395 95 58 100.408 58 107C58 113.592 52.4395 119 45.5 119C38.5605 119 33 113.592 33 107C33 100.408 38.5605 95 45.5 95Z" fill="#F12024" stroke="#731F4F" stroke-width="2"/>
<circle cx="48" cy="102" r="1" fill="#D2212A"/>
<circle cx="43" cy="111" r="1" fill="#D2212A"/>
<circle cx="39.5" cy="103.5" r="0.5" fill="#D2212A"/>
<circle cx="48.5" cy="108.5" r="1.5" fill="#D2212A"/>
<path d="M82.5 69C89.4395 69 95 74.4078 95 81C95 87.5922 89.4395 93 82.5 93C75.5605 93 70 87.5922 70 81C70 74.4078 75.5605 69 82.5 69Z" fill="#F12024" stroke="#731F4F" stroke-width="2"/>
<circle cx="85" cy="76" r="1" fill="#D2212A"/>
<circle cx="80" cy="85" r="1" fill="#D2212A"/>
<circle cx="76.5" cy="77.5" r="0.5" fill="#D2212A"/>
<circle cx="85.5" cy="82.5" r="1.5" fill="#D2212A"/>
<path d="M119.5 49C126.439 49 132 54.4078 132 61C132 67.5922 126.439 73 119.5 73C112.561 73 107 67.5922 107 61C107 54.4078 112.561 49 119.5 49Z" fill="#F12024" stroke="#731F4F" stroke-width="2"/>
<circle cx="122" cy="56" r="1" fill="#D2212A"/>
<circle cx="117" cy="65" r="1" fill="#D2212A"/>
<circle cx="113.5" cy="57.5" r="0.5" fill="#D2212A"/>
<circle cx="122.5" cy="62.5" r="1.5" fill="#D2212A"/>
<path d="M119.5 95C126.439 95 132 100.408 132 107C132 113.592 126.439 119 119.5 119C112.561 119 107 113.592 107 107C107 100.408 112.561 95 119.5 95Z" fill="#F12024" stroke="#731F4F" stroke-width="2"/>
<circle cx="122" cy="102" r="1" fill="#D2212A"/>
<circle cx="117" cy="111" r="1" fill="#D2212A"/>
<circle cx="113.5" cy="103.5" r="0.5" fill="#D2212A"/>
<circle cx="122.5" cy="108.5" r="1.5" fill="#D2212A"/>
<path d="M82.5 110C89.4395 110 95 115.408 95 122C95 128.592 89.4395 134 82.5 134C75.5605 134 70 128.592 70 122C70 115.408 75.5605 110 82.5 110Z" fill="#F12024" stroke="#731F4F" stroke-width="2"/>
<circle cx="85" cy="117" r="1" fill="#D2212A"/>
<circle cx="80" cy="126" r="1" fill="#D2212A"/>
<circle cx="76.5" cy="118.5" r="0.5" fill="#D2212A"/>
<circle cx="85.5" cy="123.5" r="1.5" fill="#D2212A"/>
<path d="M83.5 28C90.4395 28 96 33.4078 96 40C96 46.5922 90.4395 52 83.5 52C76.5605 52 71 46.5922 71 40C71 33.4078 76.5605 28 83.5 28Z" fill="#F12024" stroke="#731F4F" stroke-width="2"/>
<circle cx="86" cy="35" r="1" fill="#D2212A"/>
<circle cx="81" cy="44" r="1" fill="#D2212A"/>
<circle cx="77.5" cy="36.5" r="0.5" fill="#D2212A"/>
<circle cx="86.5" cy="41.5" r="1.5" fill="#D2212A"/>
<ellipse cx="84" cy="155.5" rx="11" ry="2.5" fill="#F5B63B"/>
<ellipse cx="82" cy="7.5" rx="11" ry="2.5" fill="#F5B63B"/>
</g>
<defs>
<clipPath id="clip0_1107_91">
<rect width="164" height="165" fill="white"/>
</clipPath>
</defs>
</svg>
