<svg width="164" height="165" viewBox="0 0 164 165" fill="none" xmlns="http://www.w3.org/2000/svg">
<g clip-path="url(#clip0_1070_252)">
<ellipse cx="82" cy="82.5" rx="82" ry="82.5" fill="#F3A021"/>
<mask id="mask0_1070_252" style="mask-type:alpha" maskUnits="userSpaceOnUse" x="0" y="0" width="164" height="165">
<path d="M82 1C126.729 1 163 37.4831 163 82.5C163 127.517 126.729 164 82 164C37.2707 164 1 127.517 1 82.5C1 37.4831 37.2707 1 82 1Z" fill="#D9D9D9" stroke="#731F4F" stroke-width="2"/>
</mask>
<g mask="url(#mask0_1070_252)">
<path d="M85 0C129.724 0 166 36.4775 166 81.5C166 126.523 129.724 163 85 163C40.2762 163 4 126.523 4 81.5C4 36.4775 40.2762 0 85 0Z" stroke="#D27227" stroke-width="4"/>
</g>
<mask id="mask1_1070_252" style="mask-type:alpha" maskUnits="userSpaceOnUse" x="102" y="-16" width="106" height="152">
<rect x="102" y="-16" width="106" height="152" fill="#D9D9D9"/>
</mask>
<g mask="url(#mask1_1070_252)">
<mask id="mask2_1070_252" style="mask-type:alpha" maskUnits="userSpaceOnUse" x="-4" y="0" width="168" height="165">
<path d="M80 1C125.857 1 163 37.5057 163 82.5C163 127.494 125.857 164 80 164C34.1433 164 -3 127.494 -3 82.5C-3 37.5057 34.1433 1 80 1Z" fill="#D9D9D9" stroke="#731F4F" stroke-width="2"/>
</mask>
<g mask="url(#mask2_1070_252)">
<path d="M86 1C129.343 1 165 42.3266 165 94C165 145.673 129.343 187 86 187C42.6567 187 7 145.673 7 94C7 42.3266 42.6567 1 86 1Z" stroke="#FCCC79" stroke-width="4"/>
</g>
</g>
<path d="M82 1C126.729 1 163 37.4831 163 82.5C163 127.517 126.729 164 82 164C37.2707 164 1 127.517 1 82.5C1 37.4831 37.2707 1 82 1Z" stroke="#731F4F" stroke-width="2"/>
<ellipse cx="82" cy="81.5" rx="71" ry="70.5" fill="#D17027"/>
<circle cx="82" cy="83" r="64.5" fill="#FFC91F" stroke="#E39F2A" stroke-width="3"/>
<circle cx="82" cy="83" r="67.5" stroke="#731F4F" stroke-width="3"/>
<ellipse cx="84" cy="155.5" rx="11" ry="2.5" fill="#F5B63B"/>
<ellipse cx="82" cy="7.5" rx="11" ry="2.5" fill="#F5B63B"/>
<circle cx="71" cy="58" r="2" fill="#DC9328"/>
<circle cx="64.5" cy="96.5" r="1.5" fill="#DC9328"/>
<circle cx="92" cy="132" r="1" fill="#DC9328"/>
<circle cx="96" cy="96" r="2" fill="#DC9328"/>
<circle cx="97" cy="56" r="2" fill="#DC9328"/>
<mask id="mask3_1070_252" style="mask-type:alpha" maskUnits="userSpaceOnUse" x="60" y="62" width="29" height="34">
<path d="M77.7747 95.599L60.2851 88.1751L71.2256 62.401L88.7152 69.8249L78.0563 82.139L77.7747 95.599Z" fill="#D9D9D9"/>
</mask>
<g mask="url(#mask3_1070_252)">
<path d="M75.9768 88.3177C71.1044 86.2495 68.8242 80.8548 70.7486 76.3212C72.673 71.7876 78.1375 69.6804 83.01 71.7486C87.8824 73.8168 90.1626 79.2115 88.2382 83.7451C86.3138 88.2787 80.8493 90.3859 75.9768 88.3177Z" stroke="#FDDCD5" stroke-width="2"/>
<circle cx="79.0331" cy="79.8378" r="10" transform="rotate(-157 79.0331 79.8378)" stroke="#974459" stroke-width="2"/>
</g>
<mask id="mask4_1070_252" style="mask-type:alpha" maskUnits="userSpaceOnUse" x="89" y="36" width="35" height="34">
<path d="M111.964 36.9877L123.398 52.1617L101.036 69.0126L89.6017 53.8385L104.99 48.5035L111.964 36.9877Z" fill="#D9D9D9"/>
</mask>
<g mask="url(#mask4_1070_252)">
<path d="M109.88 44.1924C113.065 48.4198 112.343 54.2318 108.409 57.1958C104.476 60.1598 98.69 59.2525 95.5044 55.0251C92.3189 50.7977 93.0415 44.9858 96.9749 42.0217C100.908 39.0577 106.694 39.9651 109.88 44.1924Z" stroke="#FDDCD5" stroke-width="2"/>
<circle cx="102.993" cy="50.008" r="10" transform="rotate(53 102.993 50.008)" stroke="#974459" stroke-width="2"/>
</g>
<mask id="mask5_1070_252" style="mask-type:alpha" maskUnits="userSpaceOnUse" x="52" y="32" width="31" height="24">
<path d="M80.2376 32.8645L82.5531 51.7229L54.7618 55.1352L52.4463 36.2768L68.4401 39.3506L80.2376 32.8645Z" fill="#D9D9D9"/>
</mask>
<g mask="url(#mask5_1070_252)">
<path d="M74.8307 38.0622C75.4758 43.3159 71.944 47.9879 67.0556 48.5882C62.1671 49.1884 57.61 45.5096 56.9649 40.2558C56.3198 35.002 59.8516 30.33 64.74 29.7298C69.6285 29.1296 74.1856 32.8084 74.8307 38.0622Z" stroke="#FDDCD5" stroke-width="2"/>
<circle cx="65.9587" cy="39.6553" r="10" transform="rotate(83 65.9587 39.6553)" stroke="#974459" stroke-width="2"/>
</g>
<mask id="mask6_1070_252" style="mask-type:alpha" maskUnits="userSpaceOnUse" x="29" y="73" width="35" height="30">
<path d="M29.9608 91.5639L37.0783 73.9474L63.0395 84.4364L55.922 102.053L43.4236 91.6106L29.9608 91.5639Z" fill="#D9D9D9"/>
</mask>
<g mask="url(#mask6_1070_252)">
<path d="M37.2097 89.6392C39.1926 84.7314 44.5466 82.3575 49.1131 84.2025C53.6796 86.0474 55.8819 91.4743 53.899 96.3822C51.9161 101.29 46.5621 103.664 41.9956 101.819C37.429 99.974 35.2268 94.547 37.2097 89.6392Z" stroke="#FDDCD5" stroke-width="2"/>
<circle cx="45.7416" cy="92.5471" r="10" transform="rotate(-68 45.7416 92.5471)" stroke="#974459" stroke-width="2"/>
</g>
<mask id="mask7_1070_252" style="mask-type:alpha" maskUnits="userSpaceOnUse" x="59" y="107" width="35" height="32">
<path d="M59.5931 123.638L69.6616 107.525L93.407 122.362L83.3385 138.475L72.8433 126.021L59.5931 123.638Z" fill="#D9D9D9"/>
</mask>
<g mask="url(#mask7_1070_252)">
<path d="M67.066 123.001C69.871 118.512 75.5559 117.104 79.7327 119.714C83.9094 122.324 85.1359 128.051 82.3309 132.539C79.5259 137.028 73.841 138.437 69.6642 135.827C65.4874 133.217 64.261 127.49 67.066 123.001Z" stroke="#FDDCD5" stroke-width="2"/>
<circle cx="74.9634" cy="127.346" r="10" transform="rotate(-58 74.9634 127.346)" stroke="#974459" stroke-width="2"/>
</g>
<mask id="mask8_1070_252" style="mask-type:alpha" maskUnits="userSpaceOnUse" x="107" y="89" width="29" height="20">
<path d="M135.332 89.257L135.664 108.254L107.668 108.743L107.336 89.7457L122.921 94.4744L135.332 89.257Z" fill="#D9D9D9"/>
</mask>
<g mask="url(#mask8_1070_252)">
<path d="M129.411 93.8611C129.504 99.1535 125.503 103.431 120.579 103.517C115.654 103.603 111.507 99.4676 111.414 94.1752C111.322 88.8828 115.323 84.6055 120.247 84.5196C125.171 84.4336 129.319 88.5686 129.411 93.8611Z" stroke="#FDDCD5" stroke-width="2"/>
<circle cx="120.422" cy="94.5181" r="10" transform="rotate(89 120.422 94.5181)" stroke="#974459" stroke-width="2"/>
</g>
<path d="M106.005 42.0301C105.709 42.4305 105.754 42.9873 106.108 43.3365L106.958 44.1725L107.176 48.2846L104.871 50.8063L91.9428 50.9049L86.8471 50.416L88.089 47.4027C88.1951 47.1451 88.1893 46.8551 88.0724 46.6022C87.9702 46.3811 87.7914 46.2061 87.5708 46.1082L87.474 46.0709L86.4228 45.7286L88.9832 43.4036L89.3667 43.0548L90.1066 42.3818L89.8679 42.1177L90.2064 41.6032L92.0512 41.0852L96.2771 42.1083C96.6102 42.1889 96.9617 42.0938 97.208 41.8554C97.4542 41.6169 97.5608 41.2685 97.491 40.933C97.4175 40.5789 97.4518 40.4238 97.4671 40.3763C97.4772 40.3453 97.4917 40.3134 97.5667 40.2533C97.6806 40.162 97.7869 40.1103 98.0527 39.9508C98.2495 39.8327 98.5468 39.6441 98.794 39.3451C98.8242 39.3345 98.8801 39.3173 98.9723 39.3014C99.2134 39.2599 99.5546 39.248 99.9674 39.269C100.786 39.3106 101.711 39.4712 102.309 39.6071C102.315 39.6086 102.322 39.61 102.328 39.6114L105.289 40.2213L106.691 41.0994L106.005 42.0301Z" fill="#DEA067" stroke="#DEA067" stroke-width="2" stroke-linecap="square" stroke-linejoin="round"/>
<mask id="mask9_1070_252" style="mask-type:alpha" maskUnits="userSpaceOnUse" x="84" y="38" width="25" height="14">
<path d="M106.005 42.0301C105.709 42.4305 105.754 42.9873 106.108 43.3365L106.958 44.1725L107.176 48.2846L104.871 50.8063L91.9428 50.9049L86.8471 50.416L88.089 47.4027C88.1951 47.1451 88.1893 46.8551 88.0724 46.6022C87.9702 46.3811 87.7914 46.2061 87.5708 46.1082L87.474 46.0709L86.4228 45.7286L88.9832 43.4036L89.3667 43.0548L90.1066 42.3818L89.8679 42.1177L90.2064 41.6032L92.0512 41.0852L96.2771 42.1083C96.6102 42.1889 96.9617 42.0938 97.208 41.8554C97.4542 41.6169 97.5608 41.2685 97.491 40.933C97.4175 40.5789 97.4518 40.4238 97.4671 40.3763C97.4772 40.3453 97.4917 40.3134 97.5667 40.2533C97.6806 40.162 97.7869 40.1103 98.0527 39.9508C98.2495 39.8327 98.5468 39.6441 98.794 39.3451C98.8242 39.3345 98.8801 39.3173 98.9723 39.3014C99.2134 39.2599 99.5546 39.248 99.9674 39.269C100.786 39.3106 101.711 39.4712 102.309 39.6071C102.315 39.6086 102.322 39.61 102.328 39.6114L105.289 40.2213L106.691 41.0994L106.005 42.0301Z" fill="#DEA067" stroke="#DEA067" stroke-width="2" stroke-linecap="square" stroke-linejoin="round"/>
</mask>
<g mask="url(#mask9_1070_252)">
<path d="M105.978 50.904L99.9425 51.1735M107.953 45.9696L102.582 45.3395M104.994 39.06L99.1766 38.6569L97.1676 39.1194L96.9491 39.7919L96.7306 40.4644L96.5121 41.1369L94.9486 41.3724C94.8001 41.4481 94.3686 41.5557 93.8306 41.3809C93.2926 41.2061 91.8131 40.7254 91.1406 40.5069L90.2496 40.9608" stroke="#D68858" stroke-width="2" stroke-linecap="round" stroke-linejoin="round"/>
</g>
<path d="M51.1684 73.8603C50.7953 73.531 50.2367 73.5267 49.8579 73.8494L48.951 74.6235L44.8356 74.482L42.5244 71.9653L43.5529 59.0781L44.4841 54.0444L47.3777 55.5443C47.625 55.6724 47.9144 55.6919 48.1765 55.5975C48.4058 55.5149 48.5956 55.3521 48.7124 55.1409L48.758 55.0477L49.1906 54.0303L51.2836 56.7836L51.5977 57.196L52.2036 57.9918L52.4876 57.777L52.9705 58.1591L53.3258 60.042L51.9383 64.1626C51.8289 64.4875 51.8931 64.8459 52.1091 65.1121C52.3252 65.378 52.663 65.5146 53.0033 65.4744C53.3625 65.432 53.514 65.4797 53.56 65.4991C53.59 65.5119 53.6205 65.529 53.6739 65.609C53.7548 65.7304 53.7971 65.8408 53.9328 66.1195C54.0333 66.3259 54.1953 66.6385 54.4716 66.9108C54.4795 66.9419 54.4918 66.999 54.4996 67.0922C54.52 67.336 54.5021 67.6769 54.4452 68.0864C54.3324 68.8978 54.0918 69.8054 53.9042 70.3893C53.9022 70.3957 53.9002 70.4022 53.8983 70.4086L53.0326 73.3051L52.0357 74.6253L51.1684 73.8603Z" fill="#DEA067" stroke="#DEA067" stroke-width="2" stroke-linecap="square" stroke-linejoin="round"/>
<mask id="mask10_1070_252" style="mask-type:alpha" maskUnits="userSpaceOnUse" x="41" y="52" width="15" height="25">
<path d="M51.1684 73.8603C50.7953 73.531 50.2367 73.5267 49.8579 73.8494L48.951 74.6235L44.8356 74.482L42.5244 71.9653L43.5529 59.0781L44.4841 54.0444L47.3777 55.5443C47.625 55.6724 47.9144 55.6919 48.1765 55.5975C48.4058 55.5149 48.5956 55.3521 48.7124 55.1409L48.758 55.0477L49.1906 54.0303L51.2836 56.7836L51.5977 57.196L52.2036 57.9918L52.4876 57.777L52.9705 58.1591L53.3258 60.042L51.9383 64.1626C51.8289 64.4875 51.8931 64.8459 52.1091 65.1121C52.3252 65.378 52.663 65.5146 53.0033 65.4744C53.3625 65.432 53.514 65.4797 53.56 65.4991C53.59 65.5119 53.6205 65.529 53.6739 65.609C53.7548 65.7304 53.7971 65.8408 53.9328 66.1195C54.0333 66.3259 54.1953 66.6385 54.4716 66.9108C54.4795 66.9419 54.4918 66.999 54.4996 67.0922C54.52 67.336 54.5021 67.6769 54.4452 68.0864C54.3324 68.8978 54.0918 69.8054 53.9042 70.3893C53.9022 70.3957 53.9002 70.4022 53.8983 70.4086L53.0326 73.3051L52.0357 74.6253L51.1684 73.8603Z" fill="#DEA067" stroke="#DEA067" stroke-width="2" stroke-linecap="square" stroke-linejoin="round"/>
</mask>
<g mask="url(#mask10_1070_252)">
<path d="M42.3305 73.06L42.5881 67.024M47.0741 75.4576L48.1699 70.1615M54.2153 73.1117L55.1238 67.3519L54.8382 65.3103L54.1873 65.034L53.5364 64.7577L52.8855 64.4814L52.7872 62.9033C52.7247 62.7488 52.6551 62.3096 52.8762 61.7888C53.0972 61.2681 53.705 59.8362 53.9813 59.1853L53.6067 58.2581" stroke="#D68858" stroke-width="2" stroke-linecap="round" stroke-linejoin="round"/>
</g>
<path d="M66.7379 119.081C66.3133 118.822 65.7624 118.914 65.4455 119.298L64.6867 120.218L60.6093 120.793L57.8961 118.716L56.6712 105.846L56.7141 100.727L59.8243 101.702C60.0901 101.785 60.3785 101.754 60.6202 101.615C60.8316 101.494 60.9903 101.301 61.0687 101.072L61.0974 100.973L61.3467 99.8957L63.8861 102.244L64.267 102.595L65.0019 103.274L65.2442 103.013L65.7862 103.305L66.463 105.098L65.8121 109.397C65.7608 109.736 65.8863 110.078 66.1452 110.302C66.4042 110.527 66.7606 110.603 67.0888 110.504C67.4351 110.4 67.5926 110.42 67.6412 110.432C67.673 110.439 67.7061 110.451 67.7725 110.52C67.8733 110.626 67.9341 110.727 68.1161 110.978C68.251 111.164 68.4648 111.443 68.7841 111.664C68.7973 111.693 68.8193 111.747 68.8432 111.837C68.9056 112.074 68.9472 112.413 68.9623 112.826C68.9921 113.645 68.9127 114.58 68.8295 115.188C68.8286 115.194 68.8277 115.201 68.827 115.208L68.4774 118.211L67.7248 119.684L66.7379 119.081Z" fill="#DEA067" stroke="#DEA067" stroke-width="2" stroke-linecap="square" stroke-linejoin="round"/>
<mask id="mask11_1070_252" style="mask-type:alpha" maskUnits="userSpaceOnUse" x="55" y="97" width="15" height="25">
<path d="M66.7379 119.081C66.3133 118.822 65.7624 118.914 65.4455 119.298L64.6867 120.218L60.6093 120.793L57.8961 118.716L56.6712 105.846L56.7141 100.727L59.8243 101.702C60.0901 101.785 60.3785 101.754 60.6202 101.615C60.8316 101.494 60.9903 101.301 61.0687 101.072L61.0974 100.973L61.3467 99.8957L63.8861 102.244L64.267 102.595L65.0019 103.274L65.2442 103.013L65.7862 103.305L66.463 105.098L65.8121 109.397C65.7608 109.736 65.8863 110.078 66.1452 110.302C66.4042 110.527 66.7606 110.603 67.0888 110.504C67.4351 110.4 67.5926 110.42 67.6412 110.432C67.673 110.439 67.7061 110.451 67.7725 110.52C67.8733 110.626 67.9341 110.727 68.1161 110.978C68.251 111.164 68.4648 111.443 68.7841 111.664C68.7973 111.693 68.8193 111.747 68.8432 111.837C68.9056 112.074 68.9472 112.413 68.9623 112.826C68.9921 113.645 68.9127 114.58 68.8295 115.188C68.8286 115.194 68.8277 115.201 68.827 115.208L68.4774 118.211L67.7248 119.684L66.7379 119.081Z" fill="#DEA067" stroke="#DEA067" stroke-width="2" stroke-linecap="square" stroke-linejoin="round"/>
</mask>
<g mask="url(#mask11_1070_252)">
<path d="M57.8953 119.828L57.1009 113.839M62.9831 121.365L63.1426 115.959M69.6085 117.815L69.503 111.985L68.8672 110.024L68.1782 109.865L67.4892 109.706L66.8002 109.546L66.4294 108.009C66.3411 107.868 66.1962 107.448 66.3235 106.896C66.4507 106.345 66.8007 104.829 66.9597 104.14L66.4298 103.292" stroke="#D68858" stroke-width="2" stroke-linecap="round" stroke-linejoin="round"/>
</g>
<path d="M29.6582 88.2523C30.1505 88.3253 30.6213 88.0247 30.7632 87.5477L31.1022 86.4046L34.6307 84.2819L37.9398 85.1338L44.096 96.502L46.0567 101.231L42.813 101.549C42.5358 101.576 42.2824 101.717 42.114 101.939C41.9667 102.133 41.8962 102.373 41.9133 102.614L41.9258 102.717L42.1171 103.806L38.8622 102.637L38.3742 102.462L37.4326 102.125L37.3114 102.459L36.6983 102.402L35.3748 101.016L34.2943 96.8048C34.209 96.4728 33.96 96.2071 33.6339 96.1016C33.3078 95.9962 32.9501 96.0656 32.6866 96.2847C32.4085 96.516 32.2554 96.5585 32.2063 96.5672C32.1742 96.5728 32.1392 96.5751 32.0509 96.5371C31.9169 96.4793 31.8213 96.4098 31.5557 96.2499C31.359 96.1316 31.0529 95.9576 30.6729 95.8797C30.6493 95.858 30.6079 95.8168 30.5506 95.7428C30.4007 95.5495 30.23 95.2538 30.0548 94.8794C29.7074 94.1375 29.4149 93.2453 29.2542 92.6534C29.2524 92.647 29.2505 92.6404 29.2486 92.634L28.3971 89.7333L28.5142 88.0831L29.6582 88.2523Z" fill="#DEA067" stroke="#DEA067" stroke-width="2" stroke-linecap="square" stroke-linejoin="round"/>
<mask id="mask12_1070_252" style="mask-type:alpha" maskUnits="userSpaceOnUse" x="27" y="83" width="21" height="23">
<path d="M29.6582 88.2523C30.1505 88.3253 30.6213 88.0247 30.7632 87.5477L31.1022 86.4046L34.6307 84.2819L37.9398 85.1338L44.096 96.502L46.0567 101.231L42.813 101.549C42.5358 101.576 42.2824 101.717 42.114 101.939C41.9667 102.133 41.8962 102.373 41.9133 102.614L41.9258 102.717L42.1171 103.806L38.8622 102.637L38.3742 102.462L37.4326 102.125L37.3114 102.459L36.6983 102.402L35.3748 101.016L34.2943 96.8048C34.209 96.4728 33.96 96.2071 33.6339 96.1016C33.3078 95.9962 32.9501 96.0656 32.6866 96.2847C32.4085 96.516 32.2554 96.5585 32.2063 96.5672C32.1742 96.5728 32.1392 96.5751 32.0509 96.5371C31.9169 96.4793 31.8213 96.4098 31.5557 96.2499C31.359 96.1316 31.0529 95.9576 30.6729 95.8797C30.6493 95.858 30.6079 95.8168 30.5506 95.7428C30.4007 95.5495 30.23 95.2538 30.0548 94.8794C29.7074 94.1375 29.4149 93.2453 29.2542 92.6534C29.2524 92.647 29.2505 92.6404 29.2486 92.634L28.3971 89.7333L28.5142 88.0831L29.6582 88.2523Z" fill="#DEA067" stroke="#DEA067" stroke-width="2" stroke-linecap="square" stroke-linejoin="round"/>
</mask>
<g mask="url(#mask12_1070_252)">
<path d="M37.5061 84.11L40.5775 89.3126M32.222 84.6828L34.1874 89.7213M27.5106 90.5396L29.8856 95.865L31.2371 97.4217L31.9335 97.2989L32.6299 97.1761L33.3262 97.0533L34.2682 98.3233C34.4047 98.4189 34.7023 98.7493 34.8005 99.3064C34.8988 99.8635 35.1689 101.396 35.2917 102.092L36.1108 102.665" stroke="#D68858" stroke-width="2" stroke-linecap="round" stroke-linejoin="round"/>
</g>
<path d="M90.5094 113.62C90.9241 113.345 91.0728 112.807 90.8591 112.357L90.3462 111.281L91.548 107.343L94.5771 105.761L106.759 110.09L111.38 112.293L109.182 114.699C108.995 114.905 108.901 115.18 108.924 115.457C108.945 115.7 109.053 115.926 109.227 116.093L109.305 116.161L110.176 116.842L106.974 118.151L106.495 118.348L105.569 118.727L105.703 119.057L105.209 119.425L103.298 119.281L99.6774 116.874C99.3919 116.684 99.0291 116.653 98.7161 116.793C98.4032 116.933 98.1839 117.224 98.1347 117.563C98.0827 117.921 97.9974 118.055 97.9667 118.095C97.9467 118.12 97.9221 118.145 97.8311 118.176C97.6929 118.223 97.5753 118.235 97.271 118.294C97.0456 118.338 96.7017 118.413 96.3672 118.61C96.3352 118.609 96.2768 118.606 96.1847 118.59C95.944 118.546 95.6193 118.441 95.2385 118.28C94.4839 117.961 93.6695 117.494 93.154 117.161C93.1484 117.158 93.1427 117.154 93.137 117.151L90.5632 115.565L89.546 114.26L90.5094 113.62Z" fill="#DEA067" stroke="#DEA067" stroke-width="2" stroke-linecap="square" stroke-linejoin="round"/>
<mask id="mask13_1070_252" style="mask-type:alpha" maskUnits="userSpaceOnUse" x="88" y="104" width="26" height="17">
<path d="M90.5094 113.62C90.9241 113.345 91.0728 112.807 90.8591 112.357L90.3462 111.281L91.548 107.343L94.5771 105.761L106.759 110.09L111.38 112.293L109.182 114.699C108.995 114.905 108.901 115.18 108.924 115.457C108.945 115.7 109.053 115.926 109.227 116.093L109.305 116.161L110.176 116.842L106.974 118.151L106.495 118.348L105.569 118.727L105.703 119.057L105.209 119.425L103.298 119.281L99.6774 116.874C99.3919 116.684 99.0291 116.653 98.7161 116.793C98.4032 116.933 98.1839 117.224 98.1347 117.563C98.0827 117.921 97.9974 118.055 97.9667 118.095C97.9467 118.12 97.9221 118.145 97.8311 118.176C97.6929 118.223 97.5753 118.235 97.271 118.294C97.0456 118.338 96.7017 118.413 96.3672 118.61C96.3352 118.609 96.2768 118.606 96.1847 118.59C95.944 118.546 95.6193 118.441 95.2385 118.28C94.4839 117.961 93.6695 117.494 93.154 117.161C93.1484 117.158 93.1427 117.154 93.137 117.151L90.5632 115.565L89.546 114.26L90.5094 113.62Z" fill="#DEA067" stroke="#DEA067" stroke-width="2" stroke-linecap="square" stroke-linejoin="round"/>
</mask>
<g mask="url(#mask13_1070_252)">
<path d="M93.5698 105.291L99.3335 107.102M90.0262 109.252L94.8583 111.681M90.4439 116.757L95.7723 119.126L97.8183 119.378L98.2536 118.821L98.689 118.264L99.1243 117.706L100.674 118.02C100.839 118 101.282 118.046 101.728 118.394C102.173 118.743 103.399 119.7 103.956 120.136L104.949 120.014" stroke="#D68858" stroke-width="2" stroke-linecap="round" stroke-linejoin="round"/>
</g>
<path d="M123.064 63.1263C123.008 63.6208 123.325 64.0808 123.806 64.206L124.961 64.5049L127.205 67.9572L126.469 71.294L115.323 77.8432L110.665 79.9677L110.234 76.7371C110.197 76.461 110.047 76.2127 109.82 76.0521C109.62 75.9117 109.378 75.8496 109.138 75.8751L109.036 75.8912L107.954 76.1204L109.009 72.8266L109.167 72.3328L109.471 71.3801L109.132 71.2706L109.168 70.6559L110.507 69.2849L114.678 68.058C115.007 67.9612 115.264 67.7031 115.358 67.3734C115.452 67.0439 115.37 66.6888 115.142 66.4331C114.901 66.1632 114.853 66.0118 114.843 65.963C114.836 65.9311 114.833 65.8962 114.867 65.8067C114.92 65.6707 114.987 65.5728 115.137 65.3018C115.249 65.101 115.412 64.789 115.476 64.4065C115.497 64.3822 115.537 64.3394 115.609 64.2795C115.797 64.123 116.086 63.9421 116.454 63.7539C117.184 63.3808 118.065 63.0574 118.651 62.8761C118.657 62.8741 118.664 62.872 118.67 62.8699L121.539 61.9176L123.193 61.9771L123.064 63.1263Z" fill="#DEA067" stroke="#DEA067" stroke-width="2" stroke-linecap="square" stroke-linejoin="round"/>
<mask id="mask14_1070_252" style="mask-type:alpha" maskUnits="userSpaceOnUse" x="106" y="60" width="23" height="22">
<path d="M123.064 63.1263C123.008 63.6208 123.325 64.0808 123.806 64.206L124.961 64.5049L127.205 67.9572L126.469 71.294L115.323 77.8432L110.665 79.9677L110.234 76.7371C110.197 76.461 110.047 76.2127 109.82 76.0521C109.62 75.9117 109.378 75.8496 109.138 75.8751L109.036 75.8912L107.954 76.1204L109.009 72.8266L109.167 72.3328L109.471 71.3801L109.132 71.2706L109.168 70.6559L110.507 69.2849L114.678 68.058C115.007 67.9612 115.264 67.7031 115.358 67.3734C115.452 67.0439 115.37 66.6888 115.142 66.4331C114.901 66.1632 114.853 66.0118 114.843 65.963C114.836 65.9311 114.833 65.8962 114.867 65.8067C114.92 65.6707 114.987 65.5728 115.137 65.3018C115.249 65.101 115.412 64.789 115.476 64.4065C115.497 64.3822 115.537 64.3394 115.609 64.2795C115.797 64.123 116.086 63.9421 116.454 63.7539C117.184 63.3808 118.065 63.0574 118.651 62.8761C118.657 62.8741 118.664 62.872 118.67 62.8699L121.539 61.9176L123.193 61.9771L123.064 63.1263Z" fill="#DEA067" stroke="#DEA067" stroke-width="2" stroke-linecap="square" stroke-linejoin="round"/>
</mask>
<g mask="url(#mask14_1070_252)">
<path d="M127.477 70.8249L122.385 74.0759M126.72 65.5639L121.754 67.704M120.703 61.0598L115.464 63.6192L113.955 65.0243L114.102 65.7159L114.249 66.4076L114.396 67.0992L113.16 68.0849C113.069 68.2247 112.749 68.5337 112.196 68.6513C111.642 68.7689 110.121 69.0923 109.429 69.2393L108.884 70.078" stroke="#D68858" stroke-width="2" stroke-linecap="round" stroke-linejoin="round"/>
</g>
<path d="M92.6055 74.4473C92.828 74.8924 93.3443 75.1056 93.8164 74.9482L94.9473 74.5703L98.71 76.2432L99.9102 79.4424L94.1289 91.0059L91.3799 95.3242L89.2588 92.8496C89.0775 92.6381 88.8164 92.5117 88.5381 92.501C88.2946 92.4917 88.0575 92.5716 87.8701 92.7236L87.793 92.793L87.0107 93.5742L86.1016 90.2373L85.9648 89.7373L85.7012 88.7725L85.3574 88.8652L85.0527 88.3301L85.4287 86.4512L88.2588 83.1504C88.4819 82.8901 88.5567 82.5337 88.4561 82.2061C88.3554 81.8785 88.0933 81.6253 87.7627 81.5352C87.4138 81.4399 87.2911 81.339 87.2559 81.3037C87.2328 81.2807 87.2109 81.2533 87.1914 81.1592C87.1618 81.0162 87.164 80.8981 87.1426 80.5889C87.1267 80.3598 87.0936 80.0093 86.9395 79.6533C86.9437 79.6216 86.9538 79.564 86.9814 79.4746C87.0539 79.241 87.1982 78.9315 87.4043 78.5732C87.8128 77.8632 88.3759 77.1118 88.7686 76.6406C88.7728 76.6355 88.7771 76.6302 88.7812 76.625L90.6689 74.2637L92.0879 73.4131L92.6055 74.4473Z" fill="#DEA067" stroke="#DEA067" stroke-width="2" stroke-linecap="square" stroke-linejoin="round"/>
<mask id="mask15_1070_252" style="mask-type:alpha" maskUnits="userSpaceOnUse" x="84" y="72" width="17" height="25">
<path d="M92.6055 74.4473C92.828 74.8924 93.3443 75.1056 93.8164 74.9482L94.9473 74.5703L98.71 76.2432L99.9102 79.4424L94.1289 91.0059L91.3799 95.3242L89.2588 92.8496C89.0775 92.6381 88.8164 92.5117 88.5381 92.501C88.2946 92.4917 88.0575 92.5716 87.8701 92.7236L87.793 92.793L87.0107 93.5742L86.1016 90.2373L85.9648 89.7373L85.7012 88.7725L85.3574 88.8652L85.0527 88.3301L85.4287 86.4512L88.2588 83.1504C88.4819 82.8901 88.5567 82.5337 88.4561 82.2061C88.3554 81.8785 88.0933 81.6253 87.7627 81.5352C87.4138 81.4399 87.2911 81.339 87.2559 81.3037C87.2328 81.2807 87.2109 81.2533 87.1914 81.1592C87.1618 81.0162 87.164 80.8981 87.1426 80.5889C87.1267 80.3598 87.0936 80.0093 86.9395 79.6533C86.9437 79.6216 86.9538 79.564 86.9814 79.4746C87.0539 79.241 87.1982 78.9315 87.4043 78.5732C87.8128 77.8632 88.3759 77.1118 88.7686 76.6406C88.7728 76.6355 88.7771 76.6302 88.7812 76.625L90.6689 74.2637L92.0879 73.4131L92.6055 74.4473Z" fill="#DEA067" stroke="#DEA067" stroke-width="2" stroke-linecap="square" stroke-linejoin="round"/>
</mask>
<g mask="url(#mask15_1070_252)">
<path d="M100.5 78.5L98 84M97 74.5L94 79M89.5 74L86.5 79L86 81L86.5 81.5L87 82L87.5 82.5L87 84C87 84.1667 86.9 84.6 86.5 85C86.1 85.4 85 86.5 84.5 87V88" stroke="#D68858" stroke-width="2" stroke-linecap="round" stroke-linejoin="round"/>
</g>
<path d="M68.7287 103.136C69.2125 103.019 69.5364 102.564 69.4893 102.069L69.3754 100.882L71.8518 97.5918L75.239 97.142L85.2056 105.376L88.7949 109.026L85.9066 110.536C85.6597 110.665 85.4778 110.891 85.4048 111.16C85.341 111.395 85.3654 111.644 85.4715 111.861L85.5217 111.952L86.1069 112.89L82.651 113.025L82.1331 113.046L81.1336 113.086L81.1467 113.441L80.5567 113.618L78.8106 112.829L76.231 109.329C76.0276 109.053 75.6972 108.9 75.3553 108.924C75.0135 108.949 74.7078 109.147 74.5456 109.449C74.3743 109.767 74.2483 109.864 74.2061 109.891C74.1784 109.908 74.1468 109.923 74.0507 109.921C73.9048 109.918 73.7902 109.889 73.484 109.84C73.2573 109.804 72.9083 109.758 72.5268 109.828C72.4968 109.816 72.4429 109.794 72.3621 109.747C72.1507 109.623 71.8817 109.413 71.579 109.132C70.979 108.574 70.3735 107.856 70.0028 107.368C69.9987 107.362 69.9945 107.357 69.9904 107.352L68.1142 104.981L67.6046 103.407L68.7287 103.136Z" fill="#DEA067" stroke="#DEA067" stroke-width="2" stroke-linecap="square" stroke-linejoin="round"/>
<mask id="mask16_1070_252" style="mask-type:alpha" maskUnits="userSpaceOnUse" x="66" y="96" width="25" height="19">
<path d="M68.7287 103.136C69.2125 103.019 69.5364 102.564 69.4893 102.069L69.3754 100.882L71.8518 97.5918L75.239 97.142L85.2056 105.376L88.7949 109.026L85.9066 110.536C85.6597 110.665 85.4778 110.891 85.4048 111.16C85.341 111.395 85.3654 111.644 85.4715 111.861L85.5217 111.952L86.1069 112.89L82.651 113.025L82.1331 113.046L81.1336 113.086L81.1467 113.441L80.5567 113.618L78.8106 112.829L76.231 109.329C76.0276 109.053 75.6972 108.9 75.3553 108.924C75.0135 108.949 74.7078 109.147 74.5456 109.449C74.3743 109.767 74.2483 109.864 74.2061 109.891C74.1784 109.908 74.1468 109.923 74.0507 109.921C73.9048 109.918 73.7902 109.889 73.484 109.84C73.2573 109.804 72.9083 109.758 72.5268 109.828C72.4968 109.816 72.4429 109.794 72.3621 109.747C72.1507 109.623 71.8817 109.413 71.579 109.132C70.979 108.574 70.3735 107.856 70.0028 107.368C69.9987 107.362 69.9945 107.357 69.9904 107.352L68.1142 104.981L67.6046 103.407L68.7287 103.136Z" fill="#DEA067" stroke="#DEA067" stroke-width="2" stroke-linecap="square" stroke-linejoin="round"/>
</mask>
<g mask="url(#mask16_1070_252)">
<path d="M74.4535 96.3553L79.2501 100.028M69.7687 98.8658L73.4785 102.801M67.5944 106.061L71.7914 110.109L73.6276 111.046L74.2273 110.671L74.8269 110.297L75.4266 109.922L76.7757 110.747C76.9381 110.784 77.3378 110.979 77.6376 111.459C77.9373 111.938 78.7617 113.258 79.1364 113.857L80.1108 114.082" stroke="#D68858" stroke-width="2" stroke-linecap="round" stroke-linejoin="round"/>
</g>
<path d="M72.0074 48.3901L71.0306 46.0889" stroke="#553F0D" stroke-linecap="round"/>
<path d="M66.6501 52.2077L65.9611 54.6109" stroke="#553F0D" stroke-linecap="round"/>
<path d="M75.1685 55.1918L76.2644 52.9448" stroke="#553F0D" stroke-linecap="round"/>
<path d="M69.8774 61.9785L68.4794 59.9059" stroke="#553F0D" stroke-linecap="round"/>
<path d="M59.5365 60.6276L59.0595 58.1735" stroke="#553F0D" stroke-linecap="round"/>
<path d="M58.5494 54.3764L57.9446 51.9507" stroke="#553F0D" stroke-linecap="round"/>
<path d="M57.6621 51.059L59.6587 52.5635" stroke="#553F0D" stroke-linecap="round"/>
<path d="M63.2603 40.1159L65.147 41.7561" stroke="#553F0D" stroke-linecap="round"/>
<path d="M76.2732 44.2219L73.7736 44.2656" stroke="#553F0D" stroke-linecap="round"/>
<path d="M79.1463 52.4902L81.1163 50.9511" stroke="#553F0D" stroke-linecap="round"/>
<path d="M78.2308 60.5787L78.8356 58.1529" stroke="#553F0D" stroke-linecap="round"/>
<path d="M62.939 63.9786L63.9955 66.2443" stroke="#553F0D" stroke-linecap="round"/>
<path d="M62.7903 47.363L60.5433 46.2671" stroke="#553F0D" stroke-linecap="round"/>
<path d="M54.1924 47.6722L53.1358 49.938" stroke="#553F0D" stroke-linecap="round"/>
<path d="M55.3782 103.893L57.6439 104.949" stroke="#553F0D" stroke-linecap="round"/>
<path d="M56.8049 97.4709L55.709 95.224" stroke="#553F0D" stroke-linecap="round"/>
<path d="M48.4778 100.953L49.1669 103.356" stroke="#553F0D" stroke-linecap="round"/>
<path d="M47.8687 92.3693L50.2944 92.9741" stroke="#553F0D" stroke-linecap="round"/>
<path d="M56.4574 86.4538L58.454 87.9583" stroke="#553F0D" stroke-linecap="round"/>
<path d="M61.3738 90.4388L63.4464 91.8368" stroke="#553F0D" stroke-linecap="round"/>
<path d="M64.253 92.3105L61.7625 92.5284" stroke="#553F0D" stroke-linecap="round"/>
<path d="M67.4152 104.189L64.9155 104.232" stroke="#553F0D" stroke-linecap="round"/>
<path d="M54.9972 109.845L56.8256 108.14" stroke="#553F0D" stroke-linecap="round"/>
<path d="M47.3295 105.622L46.8953 108.085" stroke="#553F0D" stroke-linecap="round"/>
<path d="M42.5975 98.9991L43.7712 101.206" stroke="#553F0D" stroke-linecap="round"/>
<path d="M51.6866 86.2402L49.3854 85.2633" stroke="#553F0D" stroke-linecap="round"/>
<path d="M62.915 98.4885L65.3182 97.7994" stroke="#553F0D" stroke-linecap="round"/>
<path d="M69.0977 92.5056L68.3668 90.1149" stroke="#553F0D" stroke-linecap="round"/>
<path d="M110.588 66.3575L108.491 64.9959" stroke="#553F0D" stroke-linecap="round"/>
<path d="M108.281 72.5182L109.054 74.8959" stroke="#553F0D" stroke-linecap="round"/>
<path d="M117.012 70.2288L116.664 67.7532" stroke="#553F0D" stroke-linecap="round"/>
<path d="M116.421 78.8139L114.103 77.8774" stroke="#553F0D" stroke-linecap="round"/>
<path d="M107.092 83.4766L105.324 81.7088" stroke="#553F0D" stroke-linecap="round"/>
<path d="M102.778 78.846L100.92 77.1732" stroke="#553F0D" stroke-linecap="round"/>
<path d="M100.188 76.5919L102.684 76.7228" stroke="#553F0D" stroke-linecap="round"/>
<path d="M98.7092 64.3893L101.191 64.694" stroke="#553F0D" stroke-linecap="round"/>
<path d="M111.794 60.5166L109.746 61.9505" stroke="#553F0D" stroke-linecap="round"/>
<path d="M118.799 65.7648L119.572 63.3871" stroke="#553F0D" stroke-linecap="round"/>
<path d="M122.563 72.9823L121.708 70.6331" stroke="#553F0D" stroke-linecap="round"/>
<path d="M111.787 84.352L113.93 85.6396" stroke="#553F0D" stroke-linecap="round"/>
<path d="M102.372 70.6602L99.8966 71.0082" stroke="#553F0D" stroke-linecap="round"/>
<path d="M95.4171 75.7244L95.8082 78.1936" stroke="#553F0D" stroke-linecap="round"/>
<path d="M115.25 106.202L116.684 104.154" stroke="#553F0D" stroke-linecap="round"/>
<path d="M109.174 103.682L106.771 104.371" stroke="#553F0D" stroke-linecap="round"/>
<path d="M111.157 112.487L113.643 112.225" stroke="#553F0D" stroke-linecap="round"/>
<path d="M102.598 111.596L103.615 109.312" stroke="#553F0D" stroke-linecap="round"/>
<path d="M98.2637 102.111L100.092 100.406" stroke="#553F0D" stroke-linecap="round"/>
<path d="M103.042 97.961L104.779 96.1626" stroke="#553F0D" stroke-linecap="round"/>
<path d="M105.385 95.4505L105.167 97.941" stroke="#553F0D" stroke-linecap="round"/>
<path d="M117.632 94.399L117.241 96.8682" stroke="#553F0D" stroke-linecap="round"/>
<path d="M121.046 107.611L119.684 105.514" stroke="#553F0D" stroke-linecap="round"/>
<path d="M115.556 114.429L117.905 115.284" stroke="#553F0D" stroke-linecap="round"/>
<path d="M108.212 117.938L110.589 117.166" stroke="#553F0D" stroke-linecap="round"/>
<path d="M97.2249 106.772L95.8633 108.869" stroke="#553F0D" stroke-linecap="round"/>
<path d="M111.237 97.8409L110.976 95.3546" stroke="#553F0D" stroke-linecap="round"/>
<path d="M106.419 90.7133L103.937 91.018" stroke="#553F0D" stroke-linecap="round"/>
<path d="M37.4728 59.0404L34.9971 59.3883" stroke="#553F0D" stroke-linecap="round"/>
<path d="M39.7737 65.2032L41.9166 66.4908" stroke="#553F0D" stroke-linecap="round"/>
<path d="M44.8608 57.7476L42.9741 56.1074" stroke="#553F0D" stroke-linecap="round"/>
<path d="M50.0468 64.6148L47.683 65.4287" stroke="#553F0D" stroke-linecap="round"/>
<path d="M46.0656 74.2537L43.5716 74.0793" stroke="#553F0D" stroke-linecap="round"/>
<path d="M39.7719 73.5892L37.2722 73.5456" stroke="#553F0D" stroke-linecap="round"/>
<path d="M36.3378 73.5877L38.3078 72.0486" stroke="#553F0D" stroke-linecap="round"/>
<path d="M27.2166 65.3481L29.2891 63.9501" stroke="#553F0D" stroke-linecap="round"/>
<path d="M34.5507 53.8412L33.9459 56.267" stroke="#553F0D" stroke-linecap="round"/>
<path d="M43.2809 53.2061L42.3041 50.9048" stroke="#553F0D" stroke-linecap="round"/>
<path d="M50.8567 56.1838L48.6701 54.9718" stroke="#553F0D" stroke-linecap="round"/>
<path d="M50.1829 71.8345L52.6449 71.4004" stroke="#553F0D" stroke-linecap="round"/>
<path d="M34.0951 67.6777L32.4549 69.5644" stroke="#553F0D" stroke-linecap="round"/>
<path d="M32.1685 76.0626L34.0836 77.6696" stroke="#553F0D" stroke-linecap="round"/>
<path d="M56.2202 128.354L58.7065 128.615" stroke="#553F0D" stroke-linecap="round"/>
<path d="M55.4785 121.817L53.7107 120.05" stroke="#553F0D" stroke-linecap="round"/>
<path d="M48.7389 127.821L50.1728 129.869" stroke="#553F0D" stroke-linecap="round"/>
<path d="M45.3683 119.903L47.8588 119.685" stroke="#553F0D" stroke-linecap="round"/>
<path d="M51.5632 111.514L53.9409 112.286" stroke="#553F0D" stroke-linecap="round"/>
<path d="M57.5092 113.681L59.924 114.328" stroke="#553F0D" stroke-linecap="round"/>
<path d="M60.8408 114.513L58.557 115.53" stroke="#553F0D" stroke-linecap="round"/>
<path d="M67.6978 124.715L65.3486 125.57" stroke="#553F0D" stroke-linecap="round"/>
<path d="M57.7979 134.105L58.9715 131.898" stroke="#553F0D" stroke-linecap="round"/>
<path d="M49.1732 132.61L49.5643 135.079" stroke="#553F0D" stroke-linecap="round"/>
<path d="M42.5427 127.888L44.3711 129.593" stroke="#553F0D" stroke-linecap="round"/>
<path d="M46.9828 112.865L44.4889 112.69" stroke="#553F0D" stroke-linecap="round"/>
<path d="M61.587 120.79L63.6349 119.356" stroke="#553F0D" stroke-linecap="round"/>
<path d="M65.4851 113.12L64.0156 111.098" stroke="#553F0D" stroke-linecap="round"/>
<path d="M92.8388 38.7966L94.7256 37.1565" stroke="#553F0D" stroke-linecap="round"/>
<path d="M87.5526 34.8812L85.0541 34.9685" stroke="#553F0D" stroke-linecap="round"/>
<path d="M87.3468 43.9048L89.8225 44.2527" stroke="#553F0D" stroke-linecap="round"/>
<path d="M79.2573 40.9698L80.7965 38.9998" stroke="#553F0D" stroke-linecap="round"/>
<path d="M77.3466 30.7176L79.5332 29.5056" stroke="#553F0D" stroke-linecap="round"/>
<path d="M82.9868 27.8472L85.1069 26.5224" stroke="#553F0D" stroke-linecap="round"/>
<path d="M85.8677 25.9781L85.0538 28.3419" stroke="#553F0D" stroke-linecap="round"/>
<path d="M98.005 27.9206L97.0282 30.2219" stroke="#553F0D" stroke-linecap="round"/>
<path d="M98.1212 41.5656L97.3073 39.2018" stroke="#553F0D" stroke-linecap="round"/>
<path d="M91.1454 46.853L93.218 48.251" stroke="#553F0D" stroke-linecap="round"/>
<path d="M83.17 48.4819L85.6639 48.3075" stroke="#553F0D" stroke-linecap="round"/>
<path d="M75.211 34.989L73.3826 36.694" stroke="#553F0D" stroke-linecap="round"/>
<path d="M90.9673 29.7133L91.3153 27.2376" stroke="#553F0D" stroke-linecap="round"/>
<path d="M88.0165 21.6317L85.5351 21.327" stroke="#553F0D" stroke-linecap="round"/>
<path d="M92.665 135.61L94.9488 134.594" stroke="#553F0D" stroke-linecap="round"/>
<path d="M88.7545 130.321L86.3396 129.674" stroke="#553F0D" stroke-linecap="round"/>
<path d="M85.9195 138.89L88.1853 139.946" stroke="#553F0D" stroke-linecap="round"/>
<path d="M79.0416 133.718L81.0894 132.284" stroke="#553F0D" stroke-linecap="round"/>
<path d="M80.2118 123.355L82.6572 122.835" stroke="#553F0D" stroke-linecap="round"/>
<path d="M86.4448 122.259L88.8596 121.612" stroke="#553F0D" stroke-linecap="round"/>
<path d="M89.7462 121.314L88.2768 123.336" stroke="#553F0D" stroke-linecap="round"/>
<path d="M100.785 126.72L99.1783 128.635" stroke="#553F0D" stroke-linecap="round"/>
<path d="M96.907 139.803L96.8198 137.304" stroke="#553F0D" stroke-linecap="round"/>
<path d="M88.6901 142.82L90.2634 144.763" stroke="#553F0D" stroke-linecap="round"/>
<path d="M80.5869 142.046L83.0228 142.608" stroke="#553F0D" stroke-linecap="round"/>
<path d="M76.9207 126.815L74.6737 127.911" stroke="#553F0D" stroke-linecap="round"/>
<path d="M93.5311 126.377L94.5876 124.111" stroke="#553F0D" stroke-linecap="round"/>
<path d="M93.0719 117.786L90.788 116.769" stroke="#553F0D" stroke-linecap="round"/>
<path d="M110.932 54.0486L110.888 56.5483" stroke="#553F0D" stroke-linecap="round"/>
<path d="M117.379 52.7401L118.986 50.825" stroke="#553F0D" stroke-linecap="round"/>
<path d="M110.811 46.5493L108.896 48.1562" stroke="#553F0D" stroke-linecap="round"/>
<path d="M118.405 42.5015L118.839 44.9635" stroke="#553F0D" stroke-linecap="round"/>
<path d="M127.302 47.9416L126.74 50.3775" stroke="#553F0D" stroke-linecap="round"/>
<path d="M125.661 54.0538L125.227 56.5158" stroke="#553F0D" stroke-linecap="round"/>
<path d="M125.123 57.4453L123.911 55.2588" stroke="#553F0D" stroke-linecap="round"/>
<path d="M115.558 65.1653L114.501 62.8996" stroke="#553F0D" stroke-linecap="round"/>
<path d="M105.34 56.1215L107.641 57.0983" stroke="#553F0D" stroke-linecap="round"/>
<path d="M106.078 47.3994L103.652 48.0042" stroke="#553F0D" stroke-linecap="round"/>
<path d="M110.204 40.3826L108.665 42.3526" stroke="#553F0D" stroke-linecap="round"/>
<path d="M125.557 43.4964L125.513 40.9968" stroke="#553F0D" stroke-linecap="round"/>
<path d="M118.935 58.7358L120.542 60.651" stroke="#553F0D" stroke-linecap="round"/>
<path d="M126.915 61.9506L128.802 60.3104" stroke="#553F0D" stroke-linecap="round"/>
</g>
<defs>
<clipPath id="clip0_1070_252">
<rect width="164" height="165" fill="white"/>
</clipPath>
</defs>
</svg>
