<svg width="164" height="165" viewBox="0 0 164 165" fill="none" xmlns="http://www.w3.org/2000/svg">
<g clip-path="url(#clip0_1070_141)">
<ellipse cx="82" cy="82.5" rx="82" ry="82.5" fill="#F3A021"/>
<mask id="mask0_1070_141" style="mask-type:alpha" maskUnits="userSpaceOnUse" x="0" y="0" width="164" height="165">
<path d="M82 1C126.729 1 163 37.4831 163 82.5C163 127.517 126.729 164 82 164C37.2707 164 1 127.517 1 82.5C1 37.4831 37.2707 1 82 1Z" fill="#D9D9D9" stroke="#731F4F" stroke-width="2"/>
</mask>
<g mask="url(#mask0_1070_141)">
<path d="M85 0C129.724 0 166 36.4775 166 81.5C166 126.523 129.724 163 85 163C40.2762 163 4 126.523 4 81.5C4 36.4775 40.2762 0 85 0Z" stroke="#D27227" stroke-width="4"/>
</g>
<mask id="mask1_1070_141" style="mask-type:alpha" maskUnits="userSpaceOnUse" x="102" y="-16" width="106" height="152">
<rect x="102" y="-16" width="106" height="152" fill="#D9D9D9"/>
</mask>
<g mask="url(#mask1_1070_141)">
<mask id="mask2_1070_141" style="mask-type:alpha" maskUnits="userSpaceOnUse" x="-4" y="0" width="168" height="165">
<path d="M80 1C125.857 1 163 37.5057 163 82.5C163 127.494 125.857 164 80 164C34.1433 164 -3 127.494 -3 82.5C-3 37.5057 34.1433 1 80 1Z" fill="#D9D9D9" stroke="#731F4F" stroke-width="2"/>
</mask>
<g mask="url(#mask2_1070_141)">
<path d="M86 1C129.343 1 165 42.3266 165 94C165 145.673 129.343 187 86 187C42.6567 187 7 145.673 7 94C7 42.3266 42.6567 1 86 1Z" stroke="#FCCC79" stroke-width="4"/>
</g>
</g>
<path d="M82 1C126.729 1 163 37.4831 163 82.5C163 127.517 126.729 164 82 164C37.2707 164 1 127.517 1 82.5C1 37.4831 37.2707 1 82 1Z" stroke="#731F4F" stroke-width="2"/>
<ellipse cx="82" cy="81.5" rx="71" ry="70.5" fill="#D17027"/>
<circle cx="82" cy="83" r="64.5" fill="#FFC91F" stroke="#E39F2A" stroke-width="3"/>
<circle cx="82" cy="83" r="67.5" stroke="#731F4F" stroke-width="3"/>
<path d="M57.5 37C67.035 37.1272 71.5 39.5 73 49C63.5316 48.9798 60.4057 45.9861 57.5 37Z" fill="#3B9940"/>
<path d="M58.5 38C62.5992 44.7194 65.5051 47.133 72 48.5" stroke="#257B44" stroke-width="2"/>
<path d="M57.5 37C67.035 37.1272 71.5 39.5 73 49C63.5316 48.9798 60.4057 45.9861 57.5 37Z" stroke="#711C5A" stroke-width="2" stroke-linejoin="round"/>
<path d="M103 48.9932C105.541 39.8022 108.969 36.0851 118.539 37.0436C116.118 46.1972 112.429 48.4617 103 48.9932Z" fill="#3B9940"/>
<path d="M104.221 48.2795C111.76 46.0185 114.832 43.8198 117.802 37.884" stroke="#257B44" stroke-width="2"/>
<path d="M103 48.9932C105.541 39.8022 108.969 36.0851 118.539 37.0436C116.118 46.1972 112.429 48.4617 103 48.9932Z" stroke="#711C5A" stroke-width="2" stroke-linejoin="round"/>
<path d="M50.4441 127.887C59.2541 124.238 62.5228 120.38 60.398 111C51.6103 114.525 49.8153 118.464 50.4441 127.887Z" fill="#3B9940"/>
<path d="M51.0026 126.588C52.322 118.828 54.1274 115.51 59.6542 111.835" stroke="#257B44" stroke-width="2"/>
<path d="M50.4441 127.887C59.2541 124.238 62.5228 120.38 60.398 111C51.6103 114.525 49.8153 118.464 50.4441 127.887Z" stroke="#711C5A" stroke-width="2" stroke-linejoin="round"/>
<path d="M102.303 73C111.435 75.7467 115.074 79.2568 113.901 88.8027C104.804 86.1773 102.623 82.4388 102.303 73Z" fill="#3B9940"/>
<path d="M102.989 74.2366C105.081 81.8247 107.21 84.945 113.078 88.0468" stroke="#257B44" stroke-width="2"/>
<path d="M102.303 73C111.435 75.7467 115.074 79.2568 113.901 88.8027C104.804 86.1773 102.623 82.4388 102.303 73Z" stroke="#711C5A" stroke-width="2" stroke-linejoin="round"/>
<path d="M100.29 112C109.149 115.527 112.471 119.339 110.476 128.748C101.64 125.344 99.7911 121.431 100.29 112Z" fill="#3B9940"/>
<path d="M100.866 113.291C102.293 121.032 104.144 124.325 109.721 127.923" stroke="#257B44" stroke-width="2"/>
<path d="M100.29 112C109.149 115.527 112.471 119.339 110.476 128.748C101.64 125.344 99.7911 121.431 100.29 112Z" stroke="#711C5A" stroke-width="2" stroke-linejoin="round"/>
<path d="M64.7312 71.404C63.4893 80.8587 60.6104 85.0154 51.0002 85.3936C52.128 75.9926 55.4668 73.2384 64.7312 71.404Z" fill="#3B9940"/>
<path d="M63.6211 72.2802C56.4683 75.5651 53.7313 78.1686 51.6138 84.459" stroke="#257B44" stroke-width="2"/>
<path d="M64.7312 71.404C63.4893 80.8587 60.6104 85.0154 51.0002 85.3936C52.128 75.9926 55.4668 73.2384 64.7312 71.404Z" stroke="#711C5A" stroke-width="2" stroke-linejoin="round"/>
<path d="M26 75.2238C35.0201 72.1301 40.0235 72.8593 44.6375 81.298C35.7162 84.47 31.7642 82.705 26 75.2238Z" fill="#3B9940"/>
<path d="M27.2785 75.8283C33.4025 80.773 36.9518 82.0661 43.5274 81.1642" stroke="#257B44" stroke-width="2"/>
<path d="M26 75.2238C35.0201 72.1301 40.0235 72.8593 44.6375 81.298C35.7162 84.47 31.7642 82.705 26 75.2238Z" stroke="#711C5A" stroke-width="2" stroke-linejoin="round"/>
<path d="M122 86.2118C125.922 77.52 129.88 74.3732 139.189 76.7897C135.392 85.4631 131.399 87.1343 122 86.2118Z" fill="#3B9940"/>
<path d="M123.316 85.694C131.113 84.6174 134.486 82.9164 138.332 77.507" stroke="#257B44" stroke-width="2"/>
<path d="M122 86.2118C125.922 77.52 129.88 74.3732 139.189 76.7897C135.392 85.4631 131.399 87.1343 122 86.2118Z" stroke="#711C5A" stroke-width="2" stroke-linejoin="round"/>
<circle cx="71" cy="58" r="2" fill="#DC9328"/>
<circle cx="64.5" cy="96.5" r="1.5" fill="#DC9328"/>
<circle cx="92" cy="132" r="1" fill="#DC9328"/>
<circle cx="96" cy="96" r="2" fill="#DC9328"/>
<circle cx="97" cy="56" r="2" fill="#DC9328"/>
<ellipse cx="84" cy="155.5" rx="11" ry="2.5" fill="#F5B63B"/>
<ellipse cx="82" cy="7.5" rx="11" ry="2.5" fill="#F5B63B"/>
</g>
<defs>
<clipPath id="clip0_1070_141">
<rect width="164" height="165" fill="white"/>
</clipPath>
</defs>
</svg>
